<svg width="14" height="12" viewBox="0 0 14 12" fill="none" xmlns="http://www.w3.org/2000/svg">
<path d="M13.3521 6.00013C13.3521 6.30738 13.1237 6.56131 12.8275 6.6015L12.7451 6.60704L2.07654 6.60655L5.93079 10.4451C6.16831 10.6816 6.16914 11.0658 5.93264 11.3033C5.71764 11.5193 5.38051 11.5396 5.14254 11.3638L5.07434 11.3052L0.178632 6.43053C0.147323 6.39935 0.120129 6.36561 0.0970488 6.32998C0.0905294 6.31926 0.0838938 6.30829 0.0776024 6.29709C0.0718164 6.2875 0.0665874 6.27754 0.0616541 6.26747C0.0548029 6.25281 0.0481081 6.23767 0.0420303 6.22222C0.0370922 6.21031 0.0329685 6.19873 0.0292082 6.18705C0.0247364 6.17257 0.0203924 6.15714 0.016655 6.14148C0.0138769 6.13054 0.0116768 6.12001 0.00975704 6.10944C0.00705814 6.09372 0.0047617 6.07745 0.00312233 6.06098C0.00170708 6.04843 0.000854492 6.03598 0.000384331 6.02353C0.00026226 6.01598 0.000109673 6.00807 0.000109673 6.00013L0.000412941 5.97662C0.000878334 5.96471 0.00169182 5.95281 0.0028553 5.94094L0.000109673 6.00013C0.000109673 5.96183 0.00365639 5.92436 0.0104408 5.88803C0.0120144 5.87935 0.0138893 5.87045 0.0159655 5.86158C0.0202761 5.84331 0.0252581 5.82571 0.0309954 5.80846C0.0338106 5.79989 0.0370913 5.79074 0.040597 5.78165C0.0476894 5.76339 0.055398 5.74598 0.0638781 5.72902C0.0678177 5.72105 0.0722303 5.7127 0.0768509 5.70444C0.0844355 5.69096 0.092248 5.67815 0.100511 5.66566C0.106339 5.65683 0.112794 5.64763 0.119534 5.63857L0.124787 5.63158C0.141138 5.61022 0.158876 5.58997 0.177868 5.57098L0.178596 5.57042L5.07431 0.694938C5.31181 0.458417 5.69608 0.459213 5.9326 0.696715C6.14762 0.912625 6.16651 1.24983 5.98973 1.48706L5.93082 1.55501L2.07816 5.39274L12.7451 5.39322C13.0803 5.39322 13.3521 5.66495 13.3521 6.00013Z" fill="#687296"/>
</svg>
