<svg width="48" height="48" viewBox="0 0 48 48" fill="none" xmlns="http://www.w3.org/2000/svg">
<path d="M20.8601 36.74C20.5601 36.74 20.2801 36.66 20.0201 36.48C19.6001 36.2 19.3601 35.74 19.3601 35.24C19.3601 34.94 19.3401 34.62 19.3001 34.3C19.1201 32.88 18.4801 31.64 17.4001 30.56C16.3201 29.48 14.9801 28.8 13.5401 28.62C13.3001 28.6 12.9601 28.58 12.6401 28.6C12.1201 28.64 11.6401 28.42 11.3401 28C11.0401 27.6 10.9601 27.06 11.1201 26.58C11.4201 25.76 11.8601 25.02 12.3801 24.42L15.4601 20.54C20.7601 13.92 31.5001 5.96 39.3601 2.8C41.0201 2.16 42.8001 2.54 44.0201 3.74C45.2801 5 45.6601 6.8 45.0001 8.44C41.8401 16.32 33.9001 27.04 27.2801 32.34L23.3401 35.5C22.6001 36.04 22.0001 36.38 21.4001 36.62C21.2401 36.7 21.0401 36.74 20.8601 36.74ZM15.0801 25.88C16.7601 26.32 18.2601 27.2 19.5201 28.46C20.7801 29.7 21.6201 31.14 22.0401 32.74L25.4201 30.02C31.7001 25 39.2401 14.82 42.2201 7.34C42.5201 6.6 42.1001 6.08 41.9001 5.9C41.7601 5.76 41.2401 5.32 40.4401 5.62C33.0001 8.62 22.8201 16.16 17.7801 22.44L15.0801 25.88Z" fill="#292D32"/>
<path d="M8.15998 45.5C6.65998 45.5 5.21998 44.9 4.13998 43.82C2.89998 42.58 2.29998 40.86 2.49998 39.1L3.03998 34.18C3.55998 29.3 7.55998 25.68 12.52 25.58C12.9 25.56 13.4 25.58 13.86 25.62C16.04 25.9 17.98 26.88 19.54 28.44C21.08 29.98 22 31.82 22.28 33.88C22.34 34.32 22.38 34.8 22.38 35.22C22.38 37.86 21.36 40.32 19.52 42.18C17.98 43.7 16 44.64 13.76 44.92L8.81998 45.46C8.59998 45.48 8.37998 45.5 8.15998 45.5ZM12.9 28.6C12.82 28.6 12.72 28.6 12.64 28.6C9.61998 28.66 6.41998 30.72 6.01998 34.52L5.47998 39.44C5.37998 40.28 5.67998 41.1 6.25998 41.7C6.83998 42.28 7.65998 42.58 8.47998 42.48L13.4 41.94C14.94 41.74 16.32 41.1 17.36 40.06C18.64 38.78 19.36 37.06 19.36 35.22C19.36 34.92 19.34 34.6 19.3 34.28C19.12 32.86 18.48 31.62 17.4 30.54C16.32 29.46 14.98 28.78 13.54 28.6C13.38 28.6 13.14 28.6 12.9 28.6Z" fill="#292D32"/>
<path d="M28.48 30.44C27.66 30.44 26.98 29.76 26.98 28.94C26.98 24.54 23.4 20.98 19.02 20.98C18.2 20.98 17.52 20.3 17.52 19.48C17.52 18.66 18.18 17.98 19 17.98C25.04 17.98 29.96 22.9 29.96 28.94C29.98 29.78 29.3 30.44 28.48 30.44Z" fill="#292D32"/>
</svg>
