<svg width="32" height="32" viewBox="0 0 32 32" fill="none" xmlns="http://www.w3.org/2000/svg">
<path d="M23.2667 30.3334C21.76 30.3334 20.1733 29.9734 18.5333 29.2801C16.9333 28.6001 15.32 27.6667 13.7467 26.5334C12.1733 25.3867 10.6667 24.0934 9.25333 22.6934C7.84 21.2667 6.56 19.7601 5.42667 18.2134C4.28 16.6134 3.36 15.0267 2.70667 13.4667C2.01333 11.8267 1.66667 10.2267 1.66667 8.72008C1.66667 7.68008 1.85333 6.69341 2.21333 5.77341C2.6 4.81341 3.18667 3.94675 4 3.18675C5.02667 2.18675 6.2 1.66675 7.45333 1.66675C7.97333 1.66675 8.50667 1.78675 8.96 2.00008C9.48 2.24008 9.92 2.60008 10.24 3.08008L13.3333 7.44008C13.6133 7.82675 13.8267 8.20008 13.9733 8.57341C14.1467 8.97341 14.24 9.37341 14.24 9.76008C14.24 10.2667 14.0933 10.7601 13.8133 11.2267C13.6133 11.5867 13.3067 11.9734 12.92 12.3601L12.0133 13.3067C12.0267 13.3467 12.04 13.3734 12.0533 13.4001C12.2133 13.6801 12.5333 14.1601 13.1467 14.8801C13.7867 15.6267 14.4133 16.2934 15.0267 16.9334C15.8267 17.7201 16.4667 18.3201 17.08 18.8267C17.84 19.4667 18.3333 19.7867 18.6267 19.9334L18.6 20.0001L19.5733 19.0401C19.9867 18.6267 20.3867 18.3201 20.7733 18.1201C21.5067 17.6667 22.44 17.5867 23.3733 17.9734C23.72 18.1201 24.0933 18.3201 24.4933 18.6001L28.92 21.7467C29.4 22.0801 29.7733 22.5067 29.9867 23.0134C30.1867 23.5201 30.28 23.9867 30.28 24.4534C30.28 25.0934 30.1333 25.7334 29.8533 26.3334C29.5733 26.9334 29.2267 27.4534 28.7867 27.9334C28.0267 28.7734 27.2 29.3734 26.24 29.7601C25.32 30.1334 24.32 30.3334 23.2667 30.3334ZM7.45333 3.66675C6.72 3.66675 6.04 3.98675 5.38667 4.62675C4.78667 5.20008 4.34667 5.82675 4.08 6.50675C3.8 7.20008 3.66667 7.93341 3.66667 8.72008C3.66667 9.96008 3.96 11.3067 4.54667 12.6934C5.14667 14.1067 5.98667 15.5734 7.05333 17.0401C8.12 18.5067 9.33333 19.9334 10.6667 21.2801C12 22.6001 13.44 23.8267 14.92 24.9067C16.36 25.9601 17.84 26.8134 19.3067 27.4267C21.5867 28.4001 23.72 28.6267 25.48 27.8934C26.16 27.6134 26.76 27.1867 27.3067 26.5734C27.6133 26.2401 27.8533 25.8801 28.0533 25.4534C28.2133 25.1201 28.2933 24.7734 28.2933 24.4267C28.2933 24.2134 28.2533 24.0001 28.1467 23.7601C28.12 23.6934 28.0267 23.5334 27.7733 23.3601L23.3467 20.2134C23.08 20.0267 22.84 19.8934 22.6133 19.8001C22.2667 19.6667 22.04 19.6534 21.7467 19.8401C21.48 19.9734 21.24 20.1734 20.9733 20.4401L19.96 21.4401C19.44 21.9467 18.64 22.0667 18.0267 21.8401L17.6667 21.6801C17.12 21.3867 16.48 20.9334 15.7733 20.3334C15.12 19.7867 14.4533 19.1601 13.6 18.3201C12.9333 17.6401 12.2933 16.9334 11.6133 16.1601C10.9867 15.4267 10.5333 14.8001 10.2533 14.2801L10.08 13.8801C10 13.5867 9.97334 13.4134 9.97334 13.2267C9.97334 12.7467 10.1467 12.3201 10.48 11.9867L11.48 10.9467C11.7467 10.6801 11.9467 10.4267 12.08 10.2001C12.1867 10.0267 12.2267 9.88008 12.2267 9.74675C12.2267 9.64008 12.1867 9.48008 12.12 9.32008C12.04 9.09341 11.8933 8.86675 11.7067 8.60008L8.61333 4.22675C8.48 4.04008 8.32 3.90675 8.12 3.81341C7.90667 3.72008 7.68 3.66675 7.45333 3.66675ZM18.6 20.0134L18.3867 20.9201L18.7467 19.9867C18.6933 19.9734 18.64 19.9867 18.6 20.0134Z" fill="#292D32"/>
</svg>
