<svg width="22" height="22" viewBox="0 0 22 22" fill="none" xmlns="http://www.w3.org/2000/svg">
<rect x="11.917" y="6.4165" width="3.66667" height="3.66667" rx="1.83333" stroke="#2F80ED" stroke-width="1.5"/>
<path d="M4.32492 15.7679L5.9189 14.1739C7.40849 12.6843 9.82359 12.6843 11.3132 14.1739L12.9072 15.7679M12.9072 15.7679L13.5528 15.1223C14.7423 13.9328 16.6964 14.0214 17.7734 15.3137L18.1519 15.7679M12.9072 15.7679L15.2911 18.1519M3.07347 13.7954C2.64218 11.9568 2.64218 10.0432 3.07347 8.20456C3.67068 5.65859 5.65859 3.67067 8.20456 3.07347C10.0432 2.64218 11.9568 2.64218 13.7954 3.07347C16.3414 3.67067 18.3293 5.65859 18.9265 8.20457C19.3578 10.0432 19.3578 11.9568 18.9265 13.7954C18.3293 16.3414 16.3414 18.3293 13.7954 18.9265C11.9568 19.3578 10.0432 19.3578 8.20457 18.9265C5.65859 18.3293 3.67068 16.3414 3.07347 13.7954Z" stroke="#2F80ED" stroke-width="1.5" stroke-linecap="round" stroke-linejoin="round"/>
</svg>
