<svg width="32" height="32" viewBox="0 0 32 32" fill="none" xmlns="http://www.w3.org/2000/svg">
<path d="M28 29.3334H4C3.45333 29.3334 3 28.88 3 28.3334C3 27.7867 3.45333 27.3334 4 27.3334H28C28.5467 27.3334 29 27.7867 29 28.3334C29 28.88 28.5467 29.3334 28 29.3334Z" fill="#292D32"/>
<path d="M25.36 4.64001C22.7734 2.05334 20.24 1.98667 17.5867 4.64001L15.9734 6.25334C15.84 6.38667 15.7867 6.60001 15.84 6.78667C16.8534 10.32 19.68 13.1467 23.2134 14.16C23.2667 14.1733 23.32 14.1867 23.3734 14.1867C23.52 14.1867 23.6534 14.1333 23.76 14.0267L25.36 12.4133C26.68 11.1067 27.32 9.84001 27.32 8.56001C27.3334 7.24001 26.6934 5.96001 25.36 4.64001Z" fill="#292D32"/>
<path d="M20.8134 15.3733C20.4267 15.1866 20.0534 15 19.6934 14.7867C19.4 14.6133 19.12 14.4267 18.84 14.2267C18.6134 14.08 18.3467 13.8667 18.0934 13.6533C18.0667 13.64 17.9734 13.56 17.8667 13.4533C17.4267 13.08 16.9334 12.6 16.4934 12.0667C16.4534 12.04 16.3867 11.9467 16.2934 11.8267C16.16 11.6667 15.9334 11.4 15.7334 11.0933C15.5734 10.8933 15.3867 10.6 15.2134 10.3067C15 9.94665 14.8134 9.58665 14.6267 9.21332C14.5605 9.07159 14.4994 8.93153 14.4421 8.79374C14.3022 8.45715 13.8662 8.36042 13.6085 8.61818L5.78668 16.44C5.61335 16.6133 5.45335 16.9467 5.41335 17.1733L4.69335 22.28C4.56002 23.1866 4.81335 24.04 5.37335 24.6133C5.85335 25.08 6.52002 25.3333 7.24002 25.3333C7.40002 25.3333 7.56002 25.32 7.72002 25.2933L12.84 24.5733C13.08 24.5333 13.4134 24.3733 13.5734 24.2L21.388 16.3853C21.6475 16.1258 21.5491 15.6818 21.2099 15.5415C21.081 15.4882 20.9495 15.4323 20.8134 15.3733Z" fill="#292D32"/>
</svg>
