<svg width="24" height="24" viewBox="0 0 24 24" fill="none" xmlns="http://www.w3.org/2000/svg">
<path d="M3.35288 9.18827L4.08229 9.36281L3.35288 9.18827ZM3.35288 15.167L4.08229 14.9925L3.35288 15.167ZM20.6471 15.167L19.9177 14.9925L20.6471 15.167ZM20.6471 9.18828L19.9177 9.36282L20.6471 9.18828ZM15.0496 3.70121L14.8815 4.43213L15.0496 3.70121ZM8.95044 3.70121L8.78237 2.97028L8.95044 3.70121ZM8.95043 20.6541L9.1185 19.9232L8.95043 20.6541ZM15.0496 20.6541L14.8815 19.9232L15.0496 20.6541ZM4.08229 9.36281C3.63924 11.2143 3.63924 13.141 4.08229 14.9925L2.62347 15.3416C2.12551 13.2606 2.12551 11.0947 2.62347 9.01373L4.08229 9.36281ZM19.9177 14.9925C20.3608 13.141 20.3608 11.2143 19.9177 9.36282L21.3765 9.01374C21.8745 11.0947 21.8745 13.2606 21.3765 15.3416L19.9177 14.9925ZM14.8815 4.43213C12.9863 3.99635 11.0137 3.99636 9.1185 4.43214L8.78237 2.97028C10.8988 2.48364 13.1012 2.48364 15.2176 2.97028L14.8815 4.43213ZM9.1185 19.9232C11.0137 20.3589 12.9863 20.3589 14.8815 19.9232L15.2176 21.385C13.1012 21.8717 10.8988 21.8717 8.78237 21.385L9.1185 19.9232ZM9.1185 4.43214C6.61229 5.00841 4.66599 6.92352 4.08229 9.36281L2.62347 9.01373C3.34276 6.00782 5.73374 3.67128 8.78237 2.97028L9.1185 4.43214ZM15.2176 2.97028C18.2663 3.67128 20.6572 6.00782 21.3765 9.01374L19.9177 9.36282C19.334 6.92353 17.3877 5.00841 14.8815 4.43213L15.2176 2.97028ZM14.8815 19.9232C17.3877 19.3469 19.334 17.4318 19.9177 14.9925L21.3765 15.3416C20.6572 18.3475 18.2663 20.684 15.2176 21.385L14.8815 19.9232ZM8.78237 21.385C5.73373 20.684 3.34276 18.3475 2.62347 15.3416L4.08229 14.9925C4.66599 17.4318 6.61228 19.3469 9.1185 19.9232L8.78237 21.385ZM14.8305 3C14.8305 4.46375 14.8322 5.48461 14.9378 6.25488C15.0403 7.00202 15.2278 7.40075 15.5196 7.68682L14.4696 8.758C13.8474 8.14805 13.5778 7.3777 13.4518 6.4587C13.3289 5.56284 13.3305 4.42051 13.3305 3H14.8305ZM20.3222 9.86843C18.8718 9.86843 17.7101 9.86997 16.7998 9.75C15.8695 9.62739 15.0897 9.36591 14.4696 8.758L15.5196 7.68682C15.8135 7.97493 16.2264 8.16146 16.9958 8.26286C17.7852 8.3669 18.8302 8.36843 20.3222 8.36843V9.86843Z" fill="#4E5670"/>
<path d="M3.35288 9.18827L4.08229 9.36281L3.35288 9.18827ZM3.35288 15.167L4.08229 14.9925L3.35288 15.167ZM20.6471 15.167L19.9177 14.9925L20.6471 15.167ZM20.6471 9.18828L19.9177 9.36282L20.6471 9.18828ZM15.0496 3.70121L14.8815 4.43213L15.0496 3.70121ZM8.95044 3.70121L8.78237 2.97028L8.95044 3.70121ZM8.95043 20.6541L9.1185 19.9232L8.95043 20.6541ZM15.0496 20.6541L14.8815 19.9232L15.0496 20.6541ZM4.08229 9.36281C3.63924 11.2143 3.63924 13.141 4.08229 14.9925L2.62347 15.3416C2.12551 13.2606 2.12551 11.0947 2.62347 9.01373L4.08229 9.36281ZM19.9177 14.9925C20.3608 13.141 20.3608 11.2143 19.9177 9.36282L21.3765 9.01374C21.8745 11.0947 21.8745 13.2606 21.3765 15.3416L19.9177 14.9925ZM14.8815 4.43213C12.9863 3.99635 11.0137 3.99636 9.1185 4.43214L8.78237 2.97028C10.8988 2.48364 13.1012 2.48364 15.2176 2.97028L14.8815 4.43213ZM9.1185 19.9232C11.0137 20.3589 12.9863 20.3589 14.8815 19.9232L15.2176 21.385C13.1012 21.8717 10.8988 21.8717 8.78237 21.385L9.1185 19.9232ZM9.1185 4.43214C6.61229 5.00841 4.66599 6.92352 4.08229 9.36281L2.62347 9.01373C3.34276 6.00782 5.73374 3.67128 8.78237 2.97028L9.1185 4.43214ZM15.2176 2.97028C18.2663 3.67128 20.6572 6.00782 21.3765 9.01374L19.9177 9.36282C19.334 6.92353 17.3877 5.00841 14.8815 4.43213L15.2176 2.97028ZM14.8815 19.9232C17.3877 19.3469 19.334 17.4318 19.9177 14.9925L21.3765 15.3416C20.6572 18.3475 18.2663 20.684 15.2176 21.385L14.8815 19.9232ZM8.78237 21.385C5.73373 20.684 3.34276 18.3475 2.62347 15.3416L4.08229 14.9925C4.66599 17.4318 6.61228 19.3469 9.1185 19.9232L8.78237 21.385Z" fill="#4E5670"/>
</svg>
