<svg width="28" height="23" viewBox="0 0 28 23" fill="none" xmlns="http://www.w3.org/2000/svg">
<path d="M3.75781 22.168H24.2305C26.5156 22.168 27.6875 20.9961 27.6875 18.7461V6.44141C27.6875 4.17969 26.5156 3.00781 24.2305 3.00781H21.2539C20.3164 3.00781 20.0469 2.87891 19.4844 2.24609L18.5117 1.15625C17.9023 0.5 17.3633 0.207031 16.1914 0.207031H11.6211C10.4609 0.207031 9.91016 0.5 9.3125 1.15625L8.32812 2.24609C7.77734 2.86719 7.49609 3.00781 6.55859 3.00781H3.75781C1.47266 3.00781 0.300781 4.17969 0.300781 6.44141V18.7461C0.300781 20.9961 1.47266 22.168 3.75781 22.168ZM21.5703 12.5C22.0039 12.5 22.168 12.9688 21.8867 13.3438L19.8828 16.0039C19.6484 16.2969 19.1914 16.3086 18.9453 16.0039L16.9414 13.3438C16.6602 12.9805 16.8359 12.5 17.2578 12.5H18.8164C18.8164 9.61719 16.7891 7.49609 14.082 7.49609C13.168 7.49609 12.3711 7.74219 11.6797 8.15234C11.0703 8.46875 10.5898 8.10547 10.5898 7.67188C10.5898 7.44922 10.6836 7.21484 10.9531 7.05078C11.7031 6.54688 12.8516 6.18359 14.082 6.18359C17.5156 6.18359 20.1406 8.84375 20.1406 12.5H21.5703ZM16.3086 16.3438C16.9297 16.0156 17.3984 16.4023 17.3984 16.8594C17.3984 17.0586 17.293 17.2695 17.0352 17.4453C16.2969 17.9609 15.1484 18.3008 13.9062 18.3008C10.4727 18.3008 7.85938 15.6406 7.85938 11.9844H6.41797C5.98438 11.9844 5.82031 11.5273 6.10156 11.1523L8.11719 8.49219C8.35156 8.19922 8.79688 8.17578 9.04297 8.49219L11.0586 11.1523C11.3281 11.5039 11.1641 11.9844 10.7305 11.9844H9.17188C9.17188 14.8672 11.1992 17 13.9062 17C14.832 17 15.6172 16.7539 16.3086 16.3438Z" fill="white"/>
</svg>
