<svg width="48" height="48" viewBox="0 0 48 48" fill="none" xmlns="http://www.w3.org/2000/svg">
<path d="M30 45.5H18C7.14 45.5 2.5 40.86 2.5 30V18C2.5 7.14 7.14 2.5 18 2.5H30C40.86 2.5 45.5 7.14 45.5 18V30C45.5 40.86 40.86 45.5 30 45.5ZM18 5.5C8.78 5.5 5.5 8.78 5.5 18V30C5.5 39.22 8.78 42.5 18 42.5H30C39.22 42.5 42.5 39.22 42.5 30V18C42.5 8.78 39.22 5.5 30 5.5H18Z" fill="#292D32"/>
<path d="M18 21.5C14.96 21.5 12.5 19.04 12.5 16C12.5 12.96 14.96 10.5 18 10.5C21.04 10.5 23.5 12.96 23.5 16C23.5 19.04 21.04 21.5 18 21.5ZM18 13.5C16.62 13.5 15.5 14.62 15.5 16C15.5 17.38 16.62 18.5 18 18.5C19.38 18.5 20.5 17.38 20.5 16C20.5 14.62 19.38 13.5 18 13.5Z" fill="#292D32"/>
<path d="M5.34003 39.4C4.86003 39.4 4.38003 39.16 4.10003 38.74C3.64003 38.06 3.82003 37.12 4.52003 36.66L14.38 30.04C16.54 28.58 19.52 28.76 21.48 30.42L22.14 31C23.14 31.86 24.84 31.86 25.82 31L34.14 23.86C36.26 22.04 39.6 22.04 41.74 23.86L45 26.66C45.62 27.2 45.7 28.14 45.16 28.78C44.62 29.4 43.68 29.48 43.04 28.94L39.78 26.14C38.78 25.28 37.08 25.28 36.08 26.14L27.76 33.28C25.64 35.1 22.3 35.1 20.16 33.28L19.5 32.7C18.58 31.92 17.06 31.84 16.04 32.54L6.18003 39.16C5.92003 39.32 5.62003 39.4 5.34003 39.4Z" fill="#292D32"/>
</svg>
