<svg width="32" height="32" viewBox="0 0 32 32" fill="none" xmlns="http://www.w3.org/2000/svg">
<path d="M24.6669 27H19.3335C18.7869 27 18.3335 26.5467 18.3335 26C18.3335 25.4533 18.7869 25 19.3335 25H24.6669C25.2135 25 25.6669 25.4533 25.6669 26C25.6669 26.5467 25.2135 27 24.6669 27Z" fill="#292D32"/>
<path d="M22.0002 29.6666C21.4535 29.6666 21.0002 29.2133 21.0002 28.6666V23.3333C21.0002 22.7866 21.4535 22.3333 22.0002 22.3333C22.5469 22.3333 23.0002 22.7866 23.0002 23.3333V28.6666C23.0002 29.2133 22.5469 29.6666 22.0002 29.6666Z" fill="#292D32"/>
<path d="M16.2135 15.4934C16.1735 15.4934 16.1469 15.4934 16.1069 15.4934C16.0402 15.4801 15.9469 15.4801 15.8669 15.4934C12.0002 15.3734 9.08021 12.3334 9.08021 8.58675C9.06687 6.74675 9.78687 5.01341 11.0935 3.70675C12.4002 2.40008 14.1335 1.66675 15.9869 1.66675C19.8002 1.66675 22.9069 4.77342 22.9069 8.58675C22.9069 12.3334 19.9869 15.3601 16.2535 15.4934C16.2402 15.4934 16.2269 15.4934 16.2135 15.4934ZM15.9869 3.66675C14.6669 3.66675 13.4402 4.18675 12.5069 5.10675C11.5869 6.04008 11.0802 7.26675 11.0802 8.57341C11.0802 11.2401 13.1602 13.4001 15.8135 13.4801C15.8935 13.4667 16.0669 13.4667 16.2402 13.4801C18.8669 13.3601 20.9069 11.2134 20.9069 8.57341C20.9069 5.88008 18.6935 3.66675 15.9869 3.66675Z" fill="#292D32"/>
<path d="M15.9869 30.0799C13.2669 30.0799 10.6935 29.3732 8.74688 28.0666C6.89354 26.8266 5.88021 25.1332 5.88021 23.3066C5.88021 21.4799 6.90688 19.7999 8.74688 18.5732C12.7335 15.9066 19.2135 15.9066 23.2002 18.5732C23.6535 18.8799 23.7869 19.5066 23.4802 19.9599C23.1735 20.4266 22.5469 20.5466 22.0935 20.2399C18.7735 18.0266 13.1735 18.0266 9.85354 20.2399C8.57354 21.0932 7.88021 22.1732 7.88021 23.3066C7.88021 24.4399 8.57354 25.5466 9.85354 26.3999C11.4669 27.4799 13.6402 28.0666 15.9735 28.0666C16.5202 28.0666 16.9735 28.5199 16.9735 29.0666C16.9735 29.6132 16.5335 30.0799 15.9869 30.0799Z" fill="#292D32"/>
</svg>
