<svg width="28" height="28" viewBox="0 0 28 28" fill="none" xmlns="http://www.w3.org/2000/svg">
<path d="M9.84773 6.72192C10.2833 4.87623 11.977 3.5 14 3.5C16.023 3.5 17.7167 4.87623 18.1523 6.72192L18.3342 6.75896C21.117 7.32535 23.3331 9.37802 24.0584 12.0611C24.6472 14.239 24.6472 16.5288 24.0584 18.7068C23.3331 21.3899 21.117 23.4425 18.3342 24.0089L17.8025 24.1171C15.2945 24.6276 12.7055 24.6276 10.1975 24.1171L9.66576 24.0089C6.88297 23.4425 4.6669 21.3899 3.94158 18.7068C3.35281 16.5288 3.35281 14.239 3.94158 12.0611C4.6669 9.37802 6.88297 7.32536 9.66576 6.75896L9.84773 6.72192Z" stroke="#2F80ED" stroke-width="1.5" stroke-linejoin="round"/>
<path d="M14 3.5C11.977 3.5 10.2833 4.87623 9.84773 6.72192L9.66576 6.75896C6.88297 7.32536 4.6669 9.37802 3.94158 12.0611C3.35281 14.239 3.35281 16.5288 3.94158 18.7068C4.6669 21.3899 6.88297 23.4425 9.66576 24.0089L10.1975 24.1171C12.7055 24.6276 15.2945 24.6276 17.8025 24.1171L18.3342 24.0089C21.117 23.4425 23.3331 21.3899 24.0584 18.7068C24.6472 16.5288 24.6472 14.239 24.0584 12.0611" stroke="#2F80ED" stroke-width="1.5" stroke-linecap="round" stroke-linejoin="round"/>
<path d="M11.083 15.1667C11.083 13.5558 12.3888 12.25 13.9997 12.25C15.6105 12.25 16.9163 13.5558 16.9163 15.1667C16.9163 16.7775 15.6105 18.0833 13.9997 18.0833C12.3888 18.0833 11.083 16.7775 11.083 15.1667Z" stroke="#2F80ED" stroke-width="1.5"/>
</svg>
