<svg width="48" height="48" viewBox="0 0 48 48" fill="none" xmlns="http://www.w3.org/2000/svg">
<path d="M24 28.34C19.74 28.34 16.26 24.88 16.26 20.6C16.26 16.32 19.74 12.88 24 12.88C28.26 12.88 31.74 16.34 31.74 20.62C31.74 24.9 28.26 28.34 24 28.34ZM24 15.88C21.4 15.88 19.26 18 19.26 20.62C19.26 23.24 21.38 25.36 24 25.36C26.62 25.36 28.74 23.24 28.74 20.62C28.74 18 26.6 15.88 24 15.88Z" fill="#292D32"/>
<path d="M24 45.52C21.04 45.52 18.06 44.4 15.74 42.18C9.83999 36.5 3.31999 27.44 5.77999 16.66C7.99999 6.88 16.54 2.5 24 2.5C24 2.5 24 2.5 24.02 2.5C31.48 2.5 40.02 6.88 42.24 16.68C44.68 27.46 38.16 36.5 32.26 42.18C29.94 44.4 26.96 45.52 24 45.52ZM24 5.5C18.18 5.5 10.7 8.6 8.71999 17.32C6.55999 26.74 12.48 34.86 17.84 40C21.3 43.34 26.72 43.34 30.18 40C35.52 34.86 41.44 26.74 39.32 17.32C37.32 8.6 29.82 5.5 24 5.5Z" fill="#292D32"/>
</svg>
