<svg width="48" height="48" viewBox="0 0 48 48" fill="none" xmlns="http://www.w3.org/2000/svg">
<path d="M12.5599 45.5C8.29995 45.5 4.81995 42.02 4.81995 37.76C4.81995 33.5 8.29995 30.02 12.5599 30.02C16.8199 30.02 20.2999 33.5 20.2999 37.76C20.2999 42.02 16.8199 45.5 12.5599 45.5ZM12.5599 33.02C9.93995 33.02 7.81995 35.14 7.81995 37.76C7.81995 40.38 9.93995 42.5 12.5599 42.5C15.1799 42.5 17.2999 40.38 17.2999 37.76C17.2999 35.14 15.1799 33.02 12.5599 33.02Z" fill="#292D32"/>
<path d="M18.8 39.26C17.98 39.26 17.3 38.58 17.3 37.76V12.6C17.3 9.44 19.2 6.96 22.24 6.14L34.7201 2.74C37.2601 2.04 39.4001 2.3 40.9001 3.46C42.4201 4.62 43.18 6.56 43.18 9.22V33.62C43.18 34.44 42.5 35.12 41.68 35.12C40.8601 35.12 40.18 34.44 40.18 33.62V9.2C40.18 8.04 39.9801 6.52 39.0801 5.84C38.1001 5.08 36.42 5.38 35.5 5.64L23.0201 9.04C21.2801 9.52 20.3 10.82 20.3 12.62V37.78C20.3 38.58 19.62 39.26 18.8 39.26Z" fill="#292D32"/>
<path d="M35.4399 41.34C31.1799 41.34 27.7 37.86 27.7 33.6C27.7 29.34 31.1799 25.86 35.4399 25.86C39.6999 25.86 43.18 29.34 43.18 33.6C43.18 37.86 39.6999 41.34 35.4399 41.34ZM35.4399 28.86C32.8199 28.86 30.7 30.98 30.7 33.6C30.7 36.22 32.8199 38.34 35.4399 38.34C38.0599 38.34 40.18 36.22 40.18 33.6C40.18 30.98 38.0599 28.86 35.4399 28.86Z" fill="#292D32"/>
<path d="M18.8 20.54C18.14 20.54 17.54 20.1 17.36 19.44C17.14 18.64 17.6 17.8 18.4 17.58L41.28 11.34C42.08 11.12 42.9 11.6 43.12 12.4C43.34 13.2 42.86 14.02 42.06 14.24L19.2 20.48C19.06 20.52 18.92 20.54 18.8 20.54Z" fill="#292D32"/>
</svg>
