<svg width="24" height="24" viewBox="0 0 24 24" fill="none" xmlns="http://www.w3.org/2000/svg">
<path d="M7.39 17.59C7.18 17.59 6.96 17.5 6.81 17.32C5.8 16.11 5.25 14.58 5.25 13V8C5.25 4.28 8.28 1.25 12 1.25C15.1 1.25 17.79 3.35 18.55 6.35C18.65 6.75 18.41 7.16 18.01 7.26C17.62 7.36 17.2 7.12 17.1 6.72C16.5 4.38 14.41 2.75 12 2.75C9.11 2.75 6.75 5.1 6.75 8V13C6.75 14.23 7.18 15.42 7.96 16.36C8.23 16.68 8.18 17.15 7.86 17.42C7.73 17.53 7.56 17.59 7.39 17.59Z" fill="white"/>
<path d="M12.0001 19.75C11.1901 19.75 10.4001 19.61 9.66008 19.33C9.27008 19.19 9.07008 18.75 9.22008 18.37C9.36008 17.98 9.80008 17.78 10.1801 17.93C10.7601 18.15 11.3801 18.26 12.0001 18.26C14.8901 18.26 17.2501 15.91 17.2501 13.01V9.98C17.2501 9.57 17.5901 9.23 18.0001 9.23C18.4101 9.23 18.7501 9.57 18.7501 9.98V13C18.7501 16.72 15.7201 19.75 12.0001 19.75Z" fill="white"/>
<path d="M11.9999 22.75C9.5199 22.75 7.1599 21.82 5.3499 20.13C5.0499 19.85 5.0299 19.37 5.3099 19.07C5.5899 18.77 6.0699 18.75 6.3699 19.03C7.8999 20.46 9.8999 21.24 11.9899 21.24C16.5399 21.24 20.2399 17.54 20.2399 12.99V10.99C20.2399 10.58 20.5799 10.24 20.9899 10.24C21.3999 10.24 21.7399 10.58 21.7399 10.99V12.99C21.7499 18.38 17.3799 22.75 11.9999 22.75Z" fill="white"/>
<path d="M2.49994 22.74C2.30994 22.74 2.11994 22.67 1.96994 22.52C1.67994 22.23 1.67994 21.75 1.96994 21.46L20.9699 2.45999C21.2599 2.16999 21.7399 2.16999 22.0299 2.45999C22.3199 2.74999 22.3199 3.22999 22.0299 3.51999L3.02994 22.52C2.87994 22.67 2.68994 22.74 2.49994 22.74Z" fill="white"/>
<path d="M11.55 6.24999C11.14 6.24999 10.8 5.90999 10.8 5.49999V2.25999C10.8 1.84999 11.14 1.50999 11.55 1.50999C11.96 1.50999 12.3 1.84999 12.3 2.25999V5.49999C12.3 5.91999 11.96 6.24999 11.55 6.24999Z" fill="white"/>
<path d="M8.5 8.25C8.09 8.25 7.75 7.91 7.75 7.5V3.5C7.75 3.09 8.09 2.75 8.5 2.75C8.91 2.75 9.25 3.09 9.25 3.5V7.5C9.25 7.91 8.91 8.25 8.5 8.25Z" fill="white"/>
</svg>
