<svg width="18" height="18" viewBox="0 0 18 18" fill="none" xmlns="http://www.w3.org/2000/svg">
<path d="M1.28951 11.5001L2.01963 11.3286L1.28951 11.5001ZM1.28951 6.49988L2.01963 6.67143L1.28951 6.49988ZM16.7105 6.49988L15.9804 6.67144L16.7105 6.49988ZM16.7105 11.5001L15.9804 11.3286L16.7105 11.5001ZM11.3951 16.7231L11.2241 15.9928V15.9928L11.3951 16.7231ZM6.60491 16.7231L6.77592 15.9928L6.77591 15.9928L6.60491 16.7231ZM6.60491 1.27693L6.77591 2.00717V2.00717L6.60491 1.27693ZM11.3951 1.27693L11.2241 2.00717H11.2241L11.3951 1.27693ZM6.36518 16.6669L6.19418 17.3972L6.19418 17.3972L6.36518 16.6669ZM11.6348 16.6669L11.8058 17.3972L11.6348 16.6669ZM11.6348 1.33306L11.8058 0.602816L11.8058 0.602816L11.6348 1.33306ZM6.36518 1.33306L6.19418 0.602818V0.602818L6.36518 1.33306ZM6.53619 2.06331L6.77591 2.00717L6.43391 0.546681L6.19418 0.602818L6.53619 2.06331ZM11.2241 2.00717L11.4638 2.06331L11.8058 0.602816L11.5661 0.546681L11.2241 2.00717ZM11.4638 15.9367L11.2241 15.9928L11.5661 17.4533L11.8058 17.3972L11.4638 15.9367ZM6.77591 15.9928L6.53619 15.9367L6.19418 17.3972L6.43391 17.4533L6.77591 15.9928ZM2.01963 11.3286C1.66012 9.79855 1.66012 8.20145 2.01963 6.67143L0.559393 6.32833C0.146869 8.08401 0.146869 9.91599 0.559393 11.6717L2.01963 11.3286ZM15.9804 6.67144C16.3399 8.20146 16.3399 9.79855 15.9804 11.3286L17.4406 11.6717C17.8531 9.91599 17.8531 8.08402 17.4406 6.32833L15.9804 6.67144ZM11.2241 15.9928C9.75981 16.3357 8.2402 16.3357 6.77592 15.9928L6.43391 17.4533C8.12315 17.8489 9.87685 17.8489 11.5661 17.4533L11.2241 15.9928ZM6.77591 2.00717C8.24019 1.66428 9.75981 1.66428 11.2241 2.00717L11.5661 0.546681C9.87685 0.151106 8.12315 0.151106 6.43391 0.546681L6.77591 2.00717ZM6.53619 15.9367C4.32068 15.4179 2.56295 13.6409 2.01963 11.3286L0.559393 11.6717C1.228 14.5172 3.4029 16.7435 6.19418 17.3972L6.53619 15.9367ZM11.8058 17.3972C14.5971 16.7435 16.772 14.5172 17.4406 11.6717L15.9804 11.3286C15.4371 13.6409 13.6793 15.4179 11.4638 15.9367L11.8058 17.3972ZM11.4638 2.06331C13.6793 2.58212 15.4371 4.35906 15.9804 6.67144L17.4406 6.32833C16.772 3.48277 14.5971 1.25646 11.8058 0.602816L11.4638 2.06331ZM6.19418 0.602818C3.4029 1.25646 1.228 3.48277 0.559393 6.32833L2.01963 6.67143C2.56295 4.35906 4.32068 2.58212 6.53619 2.06331L6.19418 0.602818Z" fill="#EB5757"/>
<path d="M7 7L7 11" stroke="#EB5757" stroke-width="1.5" stroke-linecap="round"/>
<path d="M11 7L11 11" stroke="#EB5757" stroke-width="1.5" stroke-linecap="round"/>
</svg>
