<svg width="32" height="32" viewBox="0 0 32 32" fill="none" xmlns="http://www.w3.org/2000/svg">
<path d="M4.84183 26.1582C4.62311 25.9394 4.50024 25.6427 4.50024 25.3333C4.50024 25.024 4.62311 24.7273 4.84183 24.5085L14.4937 14.8567L11.5 11.8642L12.1358 11.2272C12.811 10.5521 13.7267 10.1728 14.6815 10.1728C15.6363 10.1728 16.552 10.5521 17.2272 11.2272L19.7728 8.6815L18.5 7.40867L20.4087 5.5L25.5 10.5913L23.5913 12.5L22.3185 11.2272L19.7728 13.7728C20.4479 14.448 20.8272 15.3637 20.8272 16.3185C20.8272 17.2733 20.4479 18.189 19.7728 18.8642L19.1358 19.5L16.1433 16.5063L6.49149 26.1582C6.27271 26.3769 5.97602 26.4998 5.66666 26.4998C5.3573 26.4998 5.06061 26.3769 4.84183 26.1582Z" fill="#292D32"/>
</svg>
