<svg width="32" height="32" viewBox="0 0 32 32" fill="none" xmlns="http://www.w3.org/2000/svg">
<path d="M29.2654 23.5787C28.2924 20.2905 26.4024 17.3478 23.8168 15.0955C21.2312 12.8431 18.0572 11.3743 14.6667 10.8613V6.66667C14.6667 6.403 14.5884 6.14527 14.4419 5.92606C14.2954 5.70684 14.0872 5.53599 13.8436 5.4351C13.6 5.3342 13.3319 5.3078 13.0733 5.35922C12.8147 5.41065 12.5772 5.53759 12.3907 5.724L3.05737 15.0573C2.80741 15.3074 2.66699 15.6464 2.66699 16C2.66699 16.3536 2.80741 16.6926 3.05737 16.9427L12.3907 26.276C12.6407 26.5261 12.9798 26.6666 13.3334 26.6667C13.5086 26.6672 13.6823 26.6328 13.844 26.5653C14.0876 26.4643 14.2958 26.2934 14.4422 26.0741C14.5887 25.8548 14.6668 25.597 14.6667 25.3333V21.3333C19.5094 21.3107 22.172 21.3 27.2 25.0667C27.4273 25.2373 27.7032 25.3308 27.9874 25.3336C28.2716 25.3364 28.5493 25.2483 28.7799 25.0821C29.0105 24.916 29.1819 24.6805 29.2693 24.41C29.3566 24.1396 29.3553 23.8483 29.2654 23.5787Z" fill="#292D32"/>
</svg>
