<svg width="100" height="100" viewBox="0 0 100 100" fill="none" xmlns="http://www.w3.org/2000/svg">
<path d="M79.4167 25L84.5834 19.8333C85.7917 18.625 85.7917 16.625 84.5834 15.4167C83.3751 14.2083 81.3751 14.2083 80.1667 15.4167L75.0001 20.5833L69.8334 15.4167C68.6251 14.2083 66.6251 14.2083 65.4167 15.4167C64.2084 16.625 64.2084 18.625 65.4167 19.8333L70.5834 25L65.4167 30.1667C64.2084 31.375 64.2084 33.375 65.4167 34.5833C66.0417 35.2083 66.8334 35.5 67.6251 35.5C68.4167 35.5 69.2084 35.2083 69.8334 34.5833L75.0001 29.4167L80.1667 34.5833C80.7917 35.2083 81.5834 35.5 82.3751 35.5C83.1667 35.5 83.9584 35.2083 84.5834 34.5833C85.7917 33.375 85.7917 31.375 84.5834 30.1667L79.4167 25Z" fill="#DDDDDD"/>
<path d="M46.0416 62.2917L38.3333 70C36.7083 71.625 34.1249 71.625 32.4583 70.0417C31.9999 69.5833 31.5416 69.1667 31.0833 68.7083C26.7916 64.375 22.9166 59.8333 19.4583 55.0833C16.0416 50.3333 13.2916 45.5833 11.2916 40.875C9.33325 36.125 8.33325 31.5833 8.33325 27.25C8.33325 24.4167 8.83325 21.7083 9.83325 19.2083C10.8333 16.6667 12.4166 14.3333 14.6249 12.25C17.2916 9.62501 20.2083 8.33334 23.2916 8.33334C24.4583 8.33334 25.6249 8.58334 26.6666 9.08334C27.7499 9.58334 28.7083 10.3333 29.4583 11.4167L39.1249 25.0417C39.8749 26.0833 40.4166 27.0417 40.7916 27.9583C41.1666 28.8333 41.3749 29.7083 41.3749 30.5C41.3749 31.5 41.0833 32.5 40.4999 33.4583C39.9583 34.4167 39.1666 35.4167 38.1666 36.4167L34.9999 39.7083C34.5416 40.1667 34.3333 40.7083 34.3333 41.375C34.3333 41.7083 34.3749 42 34.4583 42.3333C34.5833 42.6667 34.7083 42.9167 34.7916 43.1667C35.5416 44.5417 36.8333 46.3333 38.6666 48.5C40.5416 50.6667 42.5416 52.875 44.7082 55.0833C45.1249 55.5 45.5833 55.9167 45.9999 56.3333C47.6666 57.9583 47.7083 60.625 46.0416 62.2917Z" fill="#DDDDDD"/>
<path d="M91.5417 76.375C91.5417 77.5417 91.3333 78.75 90.9167 79.9167C90.7917 80.25 90.6667 80.5833 90.5 80.9167C89.7917 82.4167 88.875 83.8333 87.6667 85.1667C85.625 87.4167 83.375 89.0417 80.8333 90.0833C80.7917 90.0833 80.75 90.125 80.7083 90.125C78.25 91.125 75.5833 91.6667 72.7083 91.6667C68.4583 91.6667 63.9167 90.6667 59.125 88.625C54.3333 86.5833 49.5417 83.8333 44.7917 80.375C43.1667 79.1667 41.5417 77.9583 40 76.6667L53.625 63.0417C54.7917 63.9167 55.8333 64.5833 56.7083 65.0417C56.9167 65.125 57.1667 65.25 57.4583 65.375C57.7917 65.5 58.125 65.5417 58.5 65.5417C59.2083 65.5417 59.75 65.2917 60.2083 64.8333L63.375 61.7083C64.4167 60.6667 65.4167 59.875 66.375 59.375C67.3333 58.7917 68.2917 58.5 69.3333 58.5C70.125 58.5 70.9583 58.6667 71.875 59.0417C72.7917 59.4167 73.75 59.9583 74.7917 60.6667L88.5833 70.4583C89.6667 71.2083 90.4167 72.0833 90.875 73.125C91.2917 74.1667 91.5417 75.2083 91.5417 76.375Z" fill="#DDDDDD"/>
</svg>
