<svg width="20" height="20" viewBox="0 0 20 20" fill="none" xmlns="http://www.w3.org/2000/svg">
<path d="M12.5413 2.79406C14.8558 3.33698 16.663 5.14417 17.2059 7.45869C17.598 9.13021 17.598 10.8698 17.2059 12.5413C16.663 14.8558 14.8558 16.663 12.5413 17.2059C10.8698 17.598 9.13021 17.598 7.4587 17.2059C5.14417 16.663 3.33698 14.8558 2.79406 12.5413C2.40198 10.8698 2.40198 9.13022 2.79406 7.4587C3.33697 5.14418 5.14417 3.33698 7.45869 2.79407C9.13021 2.40198 10.8698 2.40198 12.5413 2.79406Z" stroke="#EB5757" stroke-width="1.5"/>
<path d="M12.5413 2.79406C10.8698 2.40198 9.13021 2.40198 7.45869 2.79407C5.14417 3.33698 3.33697 5.14418 2.79406 7.4587C2.40198 9.13022 2.40198 10.8698 2.79406 12.5413C3.33698 14.8558 5.14417 16.663 7.4587 17.2059C9.13021 17.598 10.8698 17.598 12.5413 17.2059C14.8558 16.663 16.663 14.8558 17.2059 12.5413" stroke="#EB5757" stroke-width="1.5" stroke-linecap="round"/>
<path d="M11.4736 8.52686L8.52734 11.4731M11.4736 11.4731L8.52734 8.52686" stroke="#EB5757" stroke-width="1.5" stroke-linecap="round"/>
</svg>
