<svg width="20" height="21" viewBox="0 0 20 21" fill="none" xmlns="http://www.w3.org/2000/svg">
<path d="M0.756836 18.29C0.375977 18.6709 0.361328 19.3154 0.756836 19.6963C1.1377 20.0918 1.78223 20.0771 2.16309 19.6963L10 11.8594L17.8369 19.6963C18.2178 20.0771 18.8623 20.0918 19.2432 19.6963C19.6387 19.3154 19.624 18.6709 19.2432 18.29L11.4062 10.4531L19.2432 2.60156C19.624 2.2207 19.6387 1.59082 19.2432 1.20996C18.8623 0.814453 18.2178 0.829102 17.8369 1.20996L10 9.04688L2.16309 1.20996C1.78223 0.829102 1.1377 0.814453 0.756836 1.20996C0.361328 1.59082 0.375977 2.2207 0.756836 2.60156L8.59375 10.4531L0.756836 18.29Z" fill="white"/>
</svg>
