<svg width="48" height="48" viewBox="0 0 48 48" fill="none" xmlns="http://www.w3.org/2000/svg">
<path d="M18.3193 23.24C18.2593 23.24 18.2193 23.24 18.1593 23.24C18.0593 23.22 17.9193 23.22 17.7993 23.24C11.9993 23.06 7.61926 18.5 7.61926 12.88C7.61926 7.16 12.2793 2.5 17.9993 2.5C23.7193 2.5 28.3793 7.16 28.3793 12.88C28.3593 18.5 23.9593 23.06 18.3793 23.24C18.3593 23.24 18.3393 23.24 18.3193 23.24ZM17.9993 5.5C13.9393 5.5 10.6193 8.82 10.6193 12.88C10.6193 16.88 13.7393 20.1 17.7193 20.24C17.8393 20.22 18.0993 20.22 18.3593 20.24C22.2793 20.06 25.3593 16.84 25.3793 12.88C25.3793 8.82 22.0593 5.5 17.9993 5.5Z" fill="#292D32"/>
<path d="M33.0792 23.5C33.0192 23.5 32.9592 23.5 32.8992 23.48C32.0792 23.56 31.2392 22.98 31.1592 22.16C31.0792 21.34 31.5792 20.6 32.3992 20.5C32.6392 20.48 32.8992 20.48 33.1192 20.48C36.0392 20.32 38.3192 17.92 38.3192 14.98C38.3192 11.94 35.8592 9.48 32.8192 9.48C31.9992 9.5 31.3192 8.82 31.3192 8C31.3192 7.18 31.9992 6.5 32.8192 6.5C37.4992 6.5 41.3192 10.32 41.3192 15C41.3192 19.6 37.7192 23.32 33.1392 23.5C33.1192 23.5 33.0992 23.5 33.0792 23.5Z" fill="#292D32"/>
<path d="M18.3392 45.1C14.4192 45.1 10.4792 44.1 7.49922 42.1C4.71922 40.26 3.19922 37.74 3.19922 35C3.19922 32.26 4.71922 29.72 7.49922 27.86C13.4992 23.88 23.2192 23.88 29.1792 27.86C31.9392 29.7 33.4792 32.22 33.4792 34.96C33.4792 37.7 31.9592 40.24 29.1792 42.1C26.1792 44.1 22.2592 45.1 18.3392 45.1ZM9.15922 30.38C7.23922 31.66 6.19922 33.3 6.19922 35.02C6.19922 36.72 7.25922 38.36 9.15922 39.62C14.1392 42.96 22.5392 42.96 27.5192 39.62C29.4392 38.34 30.4792 36.7 30.4792 34.98C30.4792 33.28 29.4192 31.64 27.5192 30.38C22.5392 27.06 14.1392 27.06 9.15922 30.38Z" fill="#292D32"/>
<path d="M36.6792 41.5C35.9792 41.5 35.3592 41.02 35.2192 40.3C35.0592 39.48 35.5792 38.7 36.3792 38.52C37.6392 38.26 38.7992 37.76 39.6992 37.06C40.8392 36.2 41.4592 35.12 41.4592 33.98C41.4592 32.84 40.8392 31.76 39.7192 30.92C38.8392 30.24 37.7392 29.76 36.4392 29.46C35.6392 29.28 35.1192 28.48 35.2992 27.66C35.4792 26.86 36.2792 26.34 37.0992 26.52C38.8192 26.9 40.3192 27.58 41.5392 28.52C43.3992 29.92 44.4592 31.9 44.4592 33.98C44.4592 36.06 43.3792 38.04 41.5192 39.46C40.2792 40.42 38.7192 41.12 36.9992 41.46C36.8792 41.5 36.7792 41.5 36.6792 41.5Z" fill="#292D32"/>
</svg>
