<svg width="48" height="48" viewBox="0 0 48 48" fill="none" xmlns="http://www.w3.org/2000/svg">
<path d="M30 45.5H18C7.14 45.5 2.5 40.86 2.5 30V18C2.5 7.14 7.14 2.5 18 2.5H28C28.82 2.5 29.5 3.18 29.5 4C29.5 4.82 28.82 5.5 28 5.5H18C8.78 5.5 5.5 8.78 5.5 18V30C5.5 39.22 8.78 42.5 18 42.5H30C39.22 42.5 42.5 39.22 42.5 30V20C42.5 19.18 43.18 18.5 44 18.5C44.82 18.5 45.5 19.18 45.5 20V30C45.5 40.86 40.86 45.5 30 45.5Z" fill="#292D32"/>
<path d="M44 21.5H36C29.16 21.5 26.5 18.84 26.5 12V4C26.5 3.4 26.86 2.84 27.42 2.62C27.98 2.38 28.62 2.52 29.06 2.94L45.06 18.94C45.48 19.36 45.62 20.02 45.38 20.58C45.14 21.14 44.6 21.5 44 21.5ZM29.5 7.62V12C29.5 17.16 30.84 18.5 36 18.5H40.38L29.5 7.62Z" fill="#292D32"/>
</svg>
