<svg width="32" height="32" viewBox="0 0 32 32" fill="none" xmlns="http://www.w3.org/2000/svg">
<path d="M2.73536 23.5787C3.70833 20.2905 5.59836 17.3478 8.18394 15.0955C10.7695 12.8431 13.9436 11.3743 17.334 10.8613V6.66667C17.3341 6.403 17.4123 6.14527 17.5588 5.92606C17.7053 5.70684 17.9136 5.53599 18.1572 5.4351C18.4008 5.3342 18.6688 5.3078 18.9274 5.35922C19.186 5.41065 19.4236 5.53759 19.61 5.724L28.9434 15.0573C29.1933 15.3074 29.3337 15.6464 29.3337 16C29.3337 16.3536 29.1933 16.6926 28.9434 16.9427L19.61 26.276C19.36 26.5261 19.021 26.6666 18.6674 26.6667C18.4921 26.6672 18.3185 26.6328 18.1567 26.5653C17.9131 26.4643 17.7049 26.2934 17.5585 26.0741C17.4121 25.8548 17.334 25.597 17.334 25.3333V21.3333C12.4914 21.3107 9.82869 21.3 4.80069 25.0667C4.57339 25.2373 4.29751 25.3308 4.01331 25.3336C3.72911 25.3364 3.45146 25.2483 3.22086 25.0821C2.99026 24.916 2.81878 24.6805 2.73145 24.41C2.64411 24.1396 2.64548 23.8483 2.73536 23.5787Z" fill="#292D32"/>
</svg>
