<svg width="32" height="32" viewBox="0 0 32 32" fill="none" xmlns="http://www.w3.org/2000/svg">
<path d="M27.1466 16.9733C26.6533 16.9733 26.24 16.6 26.1866 16.1066C25.8666 13.1733 24.2933 10.5333 21.8666 8.85331C21.4266 8.54664 21.32 7.94664 21.6266 7.50664C21.9333 7.06664 22.5333 6.95997 22.9733 7.26664C25.8666 9.27997 27.7333 12.4266 28.12 15.9066C28.1733 16.44 27.7866 16.92 27.2533 16.9733C27.2133 16.9733 27.1866 16.9733 27.1466 16.9733Z" fill="#292D32"/>
<path d="M4.98664 17.04C4.95998 17.04 4.91998 17.04 4.89331 17.04C4.35998 16.9867 3.97331 16.5067 4.02664 15.9734C4.38664 12.4934 6.22664 9.34669 9.09331 7.32002C9.51998 7.01336 10.1333 7.12002 10.44 7.54669C10.7466 7.98669 10.64 8.58669 10.2133 8.89336C7.81331 10.6 6.25331 13.24 5.95998 16.16C5.90664 16.6667 5.47998 17.04 4.98664 17.04Z" fill="#292D32"/>
<path d="M21.32 28.1334C19.68 28.92 17.92 29.32 16.08 29.32C14.16 29.32 12.3333 28.8934 10.6267 28.0267C10.1467 27.8 9.96001 27.2134 10.2 26.7334C10.4267 26.2534 11.0133 26.0667 11.4933 26.2934C12.3333 26.72 13.2267 27.0134 14.1333 27.1867C15.36 27.4267 16.6133 27.44 17.84 27.2267C18.7467 27.0667 19.64 26.7867 20.4667 26.3867C20.96 26.16 21.5467 26.3467 21.76 26.84C22 27.32 21.8133 27.9067 21.32 28.1334Z" fill="#292D32"/>
<path d="M16.0666 2.67999C14 2.67999 12.3066 4.35999 12.3066 6.43999C12.3066 8.51999 13.9866 10.2 16.0666 10.2C18.1466 10.2 19.8266 8.51999 19.8266 6.43999C19.8266 4.35999 18.1466 2.67999 16.0666 2.67999Z" fill="#292D32"/>
<path d="M6.73339 18.4933C4.66672 18.4933 2.97339 20.1733 2.97339 22.2533C2.97339 24.3333 4.65339 26.0133 6.73339 26.0133C8.81339 26.0133 10.4934 24.3333 10.4934 22.2533C10.4934 20.1733 8.80006 18.4933 6.73339 18.4933Z" fill="#292D32"/>
<path d="M25.2667 18.4933C23.2 18.4933 21.5067 20.1733 21.5067 22.2533C21.5067 24.3333 23.1867 26.0133 25.2667 26.0133C27.3467 26.0133 29.0267 24.3333 29.0267 22.2533C29.0267 20.1733 27.3467 18.4933 25.2667 18.4933Z" fill="#292D32"/>
</svg>
