<svg width="24" height="24" viewBox="0 0 24 24" fill="none" xmlns="http://www.w3.org/2000/svg">
<path d="M7.5 7.03259C7.5 6.50303 7.6164 5.97864 7.84254 5.48939C8.06869 5.00013 8.40016 4.55558 8.81802 4.18112C9.23588 3.80666 9.73196 3.50962 10.2779 3.30696C10.8239 3.10431 11.4091 3 12 3C12.5909 3 13.1761 3.10431 13.7221 3.30696C14.268 3.50962 14.7641 3.80666 15.182 4.18112C15.5998 4.55558 15.9313 5.00013 16.1575 5.48939C16.3836 5.97864 16.5 6.50303 16.5 7.03259" stroke="#2F80ED" stroke-width="1.5"/>
<path d="M3 7.03223H21M5 7.03223V12.1755C5 13.7505 5.22159 15.3176 5.65815 16.8299C6.26017 18.9154 7.99345 20.4693 10.1183 20.8283L10.276 20.855C11.4174 21.0479 12.5826 21.0479 13.724 20.855L13.8817 20.8283C16.0065 20.4692 17.7398 18.9154 18.3418 16.8299C18.7784 15.3176 19 13.7505 19 12.1755V7.03223H5Z" stroke="#2F80ED" stroke-width="1.5" stroke-linecap="round"/>
<path d="M10 12V16M14 12V16" stroke="#2F80ED" stroke-width="1.5" stroke-linecap="round"/>
</svg>
